# xmcd CD database file
#
# Track frame offsets:
#	150
#	18800
#	42002
#	60607
#	71547
#	88395
#
# Disc length: 1348 seconds
#
# Revision: 0
# Processed by: cddbd v1.5.1PL0 Copyright (c) Steve Scherf et al.
# Submitted via: CDex 1.51
#
DISCID=46054206
DTITLE=ルフィ&ゾロ&サンジ(田中真弓/中井和哉/平田広明) - RESPECT!
DYEAR=2004
DGENRE=Anime
TTITLE0=RESPECT!
TTITLE1=RESPECT!(Remix Version Remixed by DJ SHIMAMURA)
TTITLE2=RESPECT!(カラオケVersion)
TTITLE3=メッセージ1(田中真弓)
TTITLE4=メッセージ2(中井和哉)
TTITLE5=メッセージ3(平田広明)
EXTD=YEAR: 2004
EXTT0=
EXTT1=
EXTT2=
EXTT3=
EXTT4=
EXTT5=
PLAYORDER=
